<svg width="120.25" height="150" viewBox="0 0 120.25 150" fill="none" xmlns="http://www.w3.org/2000/svg"><g> <mask id="b" style="mask-type:alpha" maskUnits="userSpaceOnUse" x="0" y="0"><svg width="120.25" height="150" viewBox="0 0 49.745 56.58" xml:space="preserve" xmlns="http://www.w3.org/2000/svg"> <path style="fill:#000;stroke-width:.0766568" d="m-153.714 91.33.044 22.702c0 7.768-.002 12.807 6.9 21.426 9.921 12.39.056-.064 17.617 12.453h.027c.096-.024.19-.05.284-.075V97.088l-12.291-1.664-12.38-4.093zm49.745 0-.045 22.702c0 7.768.002 12.807-6.9 21.426-9.92 12.39-.055-.064-17.616 12.453h-.028c-.095-.024-.19-.05-.284-.075V97.088l12.292-1.664 12.38-4.093z" class="UnoptimicedTransforms" transform="translate(153.715 -91.331)" /></svg></mask><g mask="url(#b)"> <svg width="120.25" height="150" viewBox="0 0 49.339 61.325" xml:space="preserve" xmlns="http://www.w3.org/2000/svg"> <path style="fill:hsl(271, 14%, 38%);stroke-width:.824566;paint-order:markers stroke fill" d="M-728.269 622.992h49.34v-61.325h-49.34z" transform="translate(728.269 -561.667)" /> <path style="fill:hsl(31, 15%, 48%);stroke-width:.186904" d="m-700.613 601.4 21.582-21.593.05 4.343.051 4.343-17.241 17.25-17.242 17.249h-8.782zm8.69 8.692 12.892-12.9.05 4.343.051 4.343-8.552 8.557-8.552 8.557h-8.783zm-36.346 5.936v-4.347l24.666-24.676 24.666-24.676v8.974l-24.528 24.536-24.529 24.536h-.275zm0-17.153v-4.393l16.401-16.407 16.401-16.408 4.341.05 4.342.05-20.743 20.751-20.742 20.75zm0-17.386v-4.394l7.712-7.714 7.713-7.714 4.34.05 4.342.05-12.054 12.058-12.053 12.057z" transform="translate(728.269 -561.667)" /></svg></g><svg y="23.333" x="10.0" xmlns="http://www.w3.org/2000/svg" viewBox="0 0 512 512" height="40.0" width="40.0"><path d="M19.75 14.438c59.538 112.29 142.51 202.35 232.28 292.718l3.626 3.75.063-.062c21.827 21.93 44.04 43.923 66.405 66.25-18.856 14.813-38.974 28.2-59.938 40.312l28.532 28.53 68.717-68.717c42.337 27.636 76.286 63.646 104.094 105.81l28.064-28.06c-42.47-27.493-79.74-60.206-106.03-103.876l68.936-68.938-28.53-28.53c-11.115 21.853-24.413 42.015-39.47 60.593-43.852-43.8-86.462-85.842-130.125-125.47-.224-.203-.432-.422-.656-.625C183.624 122.75 108.515 63.91 19.75 14.437zm471.875 0c-83.038 46.28-154.122 100.78-221.97 161.156l22.814 21.562 56.81-56.812 13.22 13.187-56.438 56.44 24.594 23.186c61.802-66.92 117.6-136.92 160.97-218.72zm-329.53 125.906l200.56 200.53c-4.36 4.443-8.84 8.793-13.405 13.032L148.875 153.53l13.22-13.186zm-76.69 113.28l-28.5 28.532 68.907 68.906c-26.29 43.673-63.53 76.414-106 103.907l28.063 28.06c27.807-42.164 61.758-78.174 104.094-105.81l68.718 68.717 28.53-28.53c-20.962-12.113-41.08-25.5-59.937-40.313 17.865-17.83 35.61-35.433 53.157-52.97l-24.843-25.655-55.47 55.467c-4.565-4.238-9.014-8.62-13.374-13.062l55.844-55.844-24.53-25.374c-18.28 17.856-36.602 36.06-55.158 54.594-15.068-18.587-28.38-38.758-39.5-60.625z" fill="hsl(151, 99%, 90%)" fill-opacity="1"></path></svg></g></svg>