<svg width="120.25" height="150" viewBox="0 0 120.25 150" fill="none" xmlns="http://www.w3.org/2000/svg"><g> <mask id="b" style="mask-type:alpha" maskUnits="userSpaceOnUse" x="0" y="0"><svg width="120.25" height="150" viewBox="0 0 48.425 55.451" xml:space="preserve" xmlns="http://www.w3.org/2000/svg"> <path style="fill:#000;stroke-width:.0766568" d="m-91.586 90.955 4.797 5.08-9.685-.248v21.407c.714 6.08 2.928 11.75 6.643 17.013 4.392 6.222 9.95 10.287 16.67 12.199h.9V90.955Zm38.649 0-4.798 5.08 9.686-.248v21.407c-.715 6.08-2.928 11.75-6.643 17.013-4.392 6.222-9.95 10.287-16.671 12.199h-.899V90.955Z" class="UnoptimicedTransforms" transform="translate(96.474 -90.955)" /></svg></mask><g mask="url(#b)"> <svg width="120.25" height="150" viewBox="0 0 49.358 61.406" xml:space="preserve" xmlns="http://www.w3.org/2000/svg"> <path style="fill:hsl(55, 22%, 48%);stroke-width:.824566;paint-order:markers stroke fill" d="M-672.526 95.79h49.34v61.324h-49.34z" transform="translate(672.526 -95.755)" /> <path style="fill:hsl(175, 20%, 38%);stroke-width:.824598;paint-order:markers stroke fill" d="M-623.168 157.161h-49.277l30.322-37.287 18.955-24.119z" transform="translate(672.526 -95.755)" /></svg></g><svg y="23.333" x="10.0" xmlns="http://www.w3.org/2000/svg" viewBox="0 0 512 512" height="40.0" width="40.0"><path d="M246.8 35.58l25.5 52.5 24.8-22.9-50.3-29.6zm109.1 13.41l-10.3 9.51 52.9 57.3 10.3-9.5-52.9-57.31zm-30.3 14.37l-57.3 52.94 66.5 72 57.3-53-66.5-71.94zM181.8 93.33l-19.5 49.17L196 187l-14.2-93.67zM75.81 127l-32.42 13.8 94.41 52.1L75.81 127zm186.09 8.9l-16.2 15-32 44.1 62.7-18.2-33.6 70.7 32.4-17.8 39.6-36.6-52.9-57.2zm232.1 2.4c-3.1.8-6.1 1.6-9.2 2.3-25.7 5.9-51.9 8.5-74.5 2.3l-69.4 64.2c4.5 23-.2 48.9-8.1 74.1-8.7 27.5-21.6 54.1-32.9 75.4 60.6 17.3 133-11.2 187.1-61.1 2.4-2.2 4.7-4.5 7-6.7V138.3zM76.71 232.6l-18.78 37.6 72.57-21.6-53.79-16zm117.19 48l-24 51.8-21-34.4-47.2 196H182l37.2-154.6-25.7 29.5.4-88.3z" fill="hsl(295, 54%, 90%)" fill-opacity="1"></path></svg></g></svg>