<svg width="120.25" height="150" viewBox="0 0 120.25 150" fill="none" xmlns="http://www.w3.org/2000/svg">
    <g>
        <mask id="b" style="mask-type:alpha" maskUnits="userSpaceOnUse" x="0" y="0"><svg width="120.25" height="150"
                viewBox="0 0 48.425 55.451" xml:space="preserve" xmlns="http://www.w3.org/2000/svg">
                <path style="fill:#000;stroke-width:.0766568"
                    d="m-91.586 90.955 4.797 5.08-9.685-.248v21.407c.714 6.08-.039 8.405 6.643 17.013 9.375 12.079.164.125 16.67 12.199h.9V90.955Zm38.649 0-4.798 5.08 9.686-.248v21.407c-.715 6.08.038 8.405-6.643 17.013-9.375 12.079-.164.125-16.671 12.199h-.899V90.955Z"
                    class="UnoptimicedTransforms" transform="translate(96.475 -90.955)" />
            </svg></mask>
        <g mask="url(#b)"> <svg width="120.25" height="150" viewBox="0 0 49.343 61.325" xml:space="preserve"
                xmlns="http://www.w3.org/2000/svg">
                <path style="fill:hsl(350, 20%, 13%);stroke-width:.824566;paint-order:markers stroke fill"
                    d="M-732.564 225.812h49.34v61.325h-49.34z" transform="translate(732.564 -225.812)" />
                <path style="fill:hsl(110, 32%, 29%);stroke-width:.823972;paint-order:markers stroke fill"
                    d="m-745.802 168.674 22.938 36.091v-36.091zm45.876 0-22.938 36.091v-36.091zm-45.858 72.181 22.92-36.102.018 36.09zm45.875-.022-22.955-36.08.018 36.09z"
                    transform="matrix(-1.07498 0 0 -.84797 -752.376 204.315)" class="UnoptimicedTransforms" />
            </svg></g><svg y="35.0" x="20.0" xmlns="http://www.w3.org/2000/svg" viewBox="0 0 512 512" height="80.0"
            width="80.0">
            <path
                d="M254.47 53.094s-4.808 37.12-49.5 49.5c-44.695 12.38-129.282 0-129.282 0L61.343 115.78l8.187 9.157-1.093 2.876-51.843 137.312L16 266.72v1.717c0 18.897 8.253 34.243 20.344 44 12.09 9.758 27.563 14.31 42.937 14.313 15.376.003 30.878-4.556 42.97-14.313 12.092-9.756 20.344-25.094 20.344-44v-1.843l-.688-1.688L86.97 130.28c23.946-3.003 80.866-8.54 115.5 1.532 23.064 6.71 36.151 20.345 43.436 31.97L210.78 354.468l21.407 30.31c-17.75 7.75-32.593 24.84-37.562 51.345-56.076 6.195-95.47 20.74-95.47 37.688h311.876c0-16.947-39.392-31.493-95.467-37.688-4.91-26.6-19.57-44.112-37.188-51.906l21-29.75L264 162.28c7.457-11.275 20.388-24.045 42.47-30.468 34.955-10.167 92.615-4.42 116.155-1.437l-50.875 134.75-.625 1.594v1.717c0 18.897 8.253 34.243 20.344 44 12.09 9.758 27.593 14.31 42.967 14.313 15.375.003 30.877-4.556 42.97-14.313 12.09-9.756 20.343-25.094 20.343-44v-1.843l-.688-1.688L441 127.562l-.938-2.28 8.782-8.438-15.594-14.25s-84.556 12.38-129.25 0-49.53-49.5-49.53-49.5zM77.53 156.656l44.22 108.375H36.594L77.53 156.657zm355.158 0l44.218 108.375H391.72l40.967-108.374z"
                fill="hsl(230, 77%, 89%)" fill-opacity="1"></path>
        </svg>
    </g>
</svg>