<svg width="120.25" height="150" viewBox="0 0 120.25 150" fill="none" xmlns="http://www.w3.org/2000/svg">
    <g>
        <mask id="b" style="mask-type:alpha" maskUnits="userSpaceOnUse" x="0" y="0"><svg width="120.25" height="150"
                viewBox="0 0 49.339 61.331" xml:space="preserve" xmlns="http://www.w3.org/2000/svg">
                <path style="fill:#000;stroke-width:.0766568" class="UnoptimicedTransforms"
                    d="m-307.397 89.805-24.53 9.199v18.244c0 3.492 0 6.174.626 8.967.767 3.422 2.474 7.01 6.273 12.459 8.572 12.292.18.01 17.748 12.462.046-.012-.024-.03.022-.042V89.857Zm.278 0 24.53 9.199v18.244c0 3.492.001 6.174-.625 8.967-.767 3.422-2.475 7.01-6.274 12.459-8.571 12.292-.18.01-17.747 12.462-.047-.012.024-.03-.023-.042V89.857Z"
                    transform="translate(331.928 -89.805)" />
            </svg></mask>
        <g mask="url(#b)"> <svg width="120.25" height="150" viewBox="0 0 49.339 61.325" xml:space="preserve"
                xmlns="http://www.w3.org/2000/svg">
                <path style="fill:hsl(219, 38%, 49%);stroke-width:.824566;paint-order:markers stroke fill"
                    d="M-728.269 622.992h49.34v-61.325h-49.34z" transform="translate(728.269 -561.667)" />
                <path style="fill:hsl(339, 32%, 34%);stroke-width:.186904"
                    d="m-700.613 601.4 21.582-21.593.05 4.343.051 4.343-17.241 17.25-17.242 17.249h-8.782zm8.69 8.692 12.892-12.9.05 4.343.051 4.343-8.552 8.557-8.552 8.557h-8.783zm-36.346 5.936v-4.347l24.666-24.676 24.666-24.676v8.974l-24.528 24.536-24.529 24.536h-.275zm0-17.153v-4.393l16.401-16.407 16.401-16.408 4.341.05 4.342.05-20.743 20.751-20.742 20.75zm0-17.386v-4.394l7.712-7.714 7.713-7.714 4.34.05 4.342.05-12.054 12.058-12.053 12.057z"
                    transform="translate(728.269 -561.667)" />
            </svg></g>
    </g>
</svg>